<mxfile host="app.diagrams.net" agent="Mozilla/5.0 (Windows NT 10.0; Win64; x64) AppleWebKit/537.36 (KHTML, like Gecko) Chrome/127.0.0.0 Safari/537.36" version="24.7.7">
  <diagram name="Page-1" id="SB0eKMuBABIEmJOD2DKe">
    <mxGraphModel dx="1434" dy="720" grid="1" gridSize="10" guides="1" tooltips="1" connect="1" arrows="1" fold="1" page="1" pageScale="1" pageWidth="850" pageHeight="1100" math="0" shadow="0">
      <root>
        <mxCell id="0" />
        <mxCell id="1" parent="0" />
        <mxCell id="oVyA_1ri0VorDqXgi2EA-1" value="&lt;font style=&quot;font-size: 14px;&quot;&gt;Ingredient&lt;/font&gt;" style="swimlane;whiteSpace=wrap;html=1;" vertex="1" parent="1">
          <mxGeometry x="200" y="100" width="240" height="140" as="geometry" />
        </mxCell>
        <mxCell id="oVyA_1ri0VorDqXgi2EA-5" value="&lt;font style=&quot;font-size: 14px;&quot;&gt;&amp;nbsp; &amp;nbsp; &amp;nbsp;Name: String&lt;/font&gt;" style="text;html=1;align=center;verticalAlign=middle;resizable=0;points=[];autosize=1;strokeColor=none;fillColor=none;" vertex="1" parent="oVyA_1ri0VorDqXgi2EA-1">
          <mxGeometry x="-15" y="50" width="120" height="30" as="geometry" />
        </mxCell>
        <mxCell id="oVyA_1ri0VorDqXgi2EA-4" value="&lt;font style=&quot;font-size: 14px;&quot;&gt;&amp;nbsp; &amp;nbsp;Id: Long&lt;/font&gt;" style="text;html=1;align=center;verticalAlign=middle;resizable=0;points=[];autosize=1;strokeColor=none;fillColor=none;" vertex="1" parent="oVyA_1ri0VorDqXgi2EA-1">
          <mxGeometry x="-10" y="28" width="90" height="30" as="geometry" />
        </mxCell>
        <mxCell id="oVyA_1ri0VorDqXgi2EA-6" value="&lt;font style=&quot;font-size: 14px;&quot;&gt;Category: EIngredientCategories&lt;/font&gt;" style="text;html=1;align=center;verticalAlign=middle;resizable=0;points=[];autosize=1;strokeColor=none;fillColor=none;" vertex="1" parent="oVyA_1ri0VorDqXgi2EA-1">
          <mxGeometry y="70" width="230" height="30" as="geometry" />
        </mxCell>
        <mxCell id="oVyA_1ri0VorDqXgi2EA-7" value="&lt;font style=&quot;font-size: 14px;&quot;&gt;&amp;nbsp; Picture_url: String&lt;/font&gt;" style="text;html=1;align=center;verticalAlign=middle;resizable=0;points=[];autosize=1;strokeColor=none;fillColor=none;" vertex="1" parent="oVyA_1ri0VorDqXgi2EA-1">
          <mxGeometry x="-5" y="90" width="140" height="30" as="geometry" />
        </mxCell>
        <mxCell id="oVyA_1ri0VorDqXgi2EA-2" value="EIngredientCategories" style="swimlane;whiteSpace=wrap;html=1;" vertex="1" parent="1">
          <mxGeometry x="540" y="100" width="200" height="240" as="geometry" />
        </mxCell>
        <mxCell id="oVyA_1ri0VorDqXgi2EA-8" value="&lt;font style=&quot;font-size: 14px;&quot;&gt;&amp;nbsp; &amp;nbsp; &amp;nbsp;MEAT&lt;/font&gt;" style="text;html=1;align=center;verticalAlign=middle;resizable=0;points=[];autosize=1;strokeColor=none;fillColor=none;" vertex="1" parent="oVyA_1ri0VorDqXgi2EA-2">
          <mxGeometry x="-15" y="20" width="80" height="30" as="geometry" />
        </mxCell>
        <mxCell id="oVyA_1ri0VorDqXgi2EA-9" value="&lt;font style=&quot;font-size: 14px;&quot;&gt;&amp;nbsp; &amp;nbsp;FISH&lt;/font&gt;" style="text;html=1;align=center;verticalAlign=middle;resizable=0;points=[];autosize=1;strokeColor=none;fillColor=none;" vertex="1" parent="oVyA_1ri0VorDqXgi2EA-2">
          <mxGeometry x="-10" y="40" width="70" height="30" as="geometry" />
        </mxCell>
        <mxCell id="oVyA_1ri0VorDqXgi2EA-10" value="&lt;font style=&quot;font-size: 14px;&quot;&gt;&amp;nbsp; SEAFOOD&lt;/font&gt;" style="text;html=1;align=center;verticalAlign=middle;resizable=0;points=[];autosize=1;strokeColor=none;fillColor=none;" vertex="1" parent="oVyA_1ri0VorDqXgi2EA-2">
          <mxGeometry x="-5" y="60" width="100" height="30" as="geometry" />
        </mxCell>
        <mxCell id="oVyA_1ri0VorDqXgi2EA-11" value="&lt;font style=&quot;font-size: 14px;&quot;&gt;&amp;nbsp; &amp;nbsp;FRUIT&lt;/font&gt;" style="text;html=1;align=center;verticalAlign=middle;resizable=0;points=[];autosize=1;strokeColor=none;fillColor=none;" vertex="1" parent="oVyA_1ri0VorDqXgi2EA-2">
          <mxGeometry x="-10" y="80" width="80" height="30" as="geometry" />
        </mxCell>
        <mxCell id="oVyA_1ri0VorDqXgi2EA-12" value="&lt;font style=&quot;font-size: 14px;&quot;&gt;VEGETABLE&lt;/font&gt;" style="text;html=1;align=center;verticalAlign=middle;resizable=0;points=[];autosize=1;strokeColor=none;fillColor=none;" vertex="1" parent="oVyA_1ri0VorDqXgi2EA-2">
          <mxGeometry y="100" width="110" height="30" as="geometry" />
        </mxCell>
        <mxCell id="oVyA_1ri0VorDqXgi2EA-13" value="&lt;font style=&quot;font-size: 14px;&quot;&gt;&amp;nbsp; LEGUME&lt;/font&gt;" style="text;html=1;align=center;verticalAlign=middle;resizable=0;points=[];autosize=1;strokeColor=none;fillColor=none;" vertex="1" parent="oVyA_1ri0VorDqXgi2EA-2">
          <mxGeometry x="-5" y="120" width="90" height="30" as="geometry" />
        </mxCell>
        <mxCell id="oVyA_1ri0VorDqXgi2EA-14" value="&lt;font style=&quot;font-size: 14px;&quot;&gt;DAIRY&lt;/font&gt;" style="text;html=1;align=center;verticalAlign=middle;resizable=0;points=[];autosize=1;strokeColor=none;fillColor=none;" vertex="1" parent="oVyA_1ri0VorDqXgi2EA-2">
          <mxGeometry y="140" width="70" height="30" as="geometry" />
        </mxCell>
        <mxCell id="oVyA_1ri0VorDqXgi2EA-15" value="&lt;font style=&quot;font-size: 14px;&quot;&gt;SPICE&lt;/font&gt;" style="text;html=1;align=center;verticalAlign=middle;resizable=0;points=[];autosize=1;strokeColor=none;fillColor=none;" vertex="1" parent="oVyA_1ri0VorDqXgi2EA-2">
          <mxGeometry y="160" width="70" height="30" as="geometry" />
        </mxCell>
        <mxCell id="oVyA_1ri0VorDqXgi2EA-16" value="&lt;font style=&quot;font-size: 14px;&quot;&gt;LIQUID&lt;/font&gt;" style="text;html=1;align=center;verticalAlign=middle;resizable=0;points=[];autosize=1;strokeColor=none;fillColor=none;" vertex="1" parent="oVyA_1ri0VorDqXgi2EA-2">
          <mxGeometry y="180" width="70" height="30" as="geometry" />
        </mxCell>
        <mxCell id="oVyA_1ri0VorDqXgi2EA-17" value="&lt;font style=&quot;font-size: 14px;&quot;&gt;&amp;nbsp;NUT&lt;/font&gt;" style="text;html=1;align=center;verticalAlign=middle;resizable=0;points=[];autosize=1;strokeColor=none;fillColor=none;" vertex="1" parent="oVyA_1ri0VorDqXgi2EA-2">
          <mxGeometry x="-5" y="198" width="60" height="30" as="geometry" />
        </mxCell>
        <mxCell id="oVyA_1ri0VorDqXgi2EA-3" value="&lt;font style=&quot;font-size: 18px;&quot;&gt;Ingredient API&amp;nbsp;&lt;/font&gt;&lt;div&gt;&lt;font style=&quot;font-size: 18px;&quot;&gt;Class Diagrams&lt;/font&gt;&lt;/div&gt;" style="text;html=1;align=center;verticalAlign=middle;resizable=0;points=[];autosize=1;strokeColor=none;fillColor=none;" vertex="1" parent="1">
          <mxGeometry x="330" y="13" width="150" height="60" as="geometry" />
        </mxCell>
        <mxCell id="oVyA_1ri0VorDqXgi2EA-18" value="&lt;font style=&quot;font-size: 14px;&quot;&gt;Ingredient Controller&lt;/font&gt;" style="swimlane;whiteSpace=wrap;html=1;" vertex="1" parent="1">
          <mxGeometry x="80" y="370" width="380" height="240" as="geometry" />
        </mxCell>
        <mxCell id="oVyA_1ri0VorDqXgi2EA-21" value="&lt;font style=&quot;font-size: 14px;&quot;&gt;BaseUrl: /api/v1/ingredient&lt;/font&gt;" style="text;html=1;align=center;verticalAlign=middle;resizable=0;points=[];autosize=1;strokeColor=none;fillColor=none;" vertex="1" parent="oVyA_1ri0VorDqXgi2EA-18">
          <mxGeometry x="-10" y="20" width="190" height="30" as="geometry" />
        </mxCell>
        <mxCell id="oVyA_1ri0VorDqXgi2EA-22" value="&lt;font style=&quot;font-size: 14px;&quot;&gt;GET - getAllIngredients()&lt;/font&gt;" style="text;html=1;align=center;verticalAlign=middle;resizable=0;points=[];autosize=1;strokeColor=none;fillColor=none;" vertex="1" parent="oVyA_1ri0VorDqXgi2EA-18">
          <mxGeometry y="50" width="180" height="30" as="geometry" />
        </mxCell>
        <mxCell id="oVyA_1ri0VorDqXgi2EA-23" value="&lt;font style=&quot;font-size: 14px;&quot;&gt;GET - getIngredientById(Long id)&lt;/font&gt;" style="text;html=1;align=center;verticalAlign=middle;resizable=0;points=[];autosize=1;strokeColor=none;fillColor=none;" vertex="1" parent="oVyA_1ri0VorDqXgi2EA-18">
          <mxGeometry y="80" width="230" height="30" as="geometry" />
        </mxCell>
        <mxCell id="oVyA_1ri0VorDqXgi2EA-24" value="&lt;font style=&quot;font-size: 14px;&quot;&gt;POST - addIngredient(Ingredient ingredient)&lt;/font&gt;" style="text;html=1;align=center;verticalAlign=middle;resizable=0;points=[];autosize=1;strokeColor=none;fillColor=none;" vertex="1" parent="oVyA_1ri0VorDqXgi2EA-18">
          <mxGeometry y="135" width="300" height="30" as="geometry" />
        </mxCell>
        <mxCell id="oVyA_1ri0VorDqXgi2EA-25" value="&lt;font style=&quot;font-size: 14px;&quot;&gt;PUT - updateIngredient(Long id, Ingredient ingredient)&lt;/font&gt;" style="text;html=1;align=center;verticalAlign=middle;resizable=0;points=[];autosize=1;strokeColor=none;fillColor=none;" vertex="1" parent="oVyA_1ri0VorDqXgi2EA-18">
          <mxGeometry y="165" width="360" height="30" as="geometry" />
        </mxCell>
        <mxCell id="oVyA_1ri0VorDqXgi2EA-26" value="&lt;font style=&quot;font-size: 14px;&quot;&gt;DELETE - deleteIngredientById(Long id)&lt;/font&gt;" style="text;html=1;align=center;verticalAlign=middle;resizable=0;points=[];autosize=1;strokeColor=none;fillColor=none;" vertex="1" parent="oVyA_1ri0VorDqXgi2EA-18">
          <mxGeometry y="195" width="270" height="30" as="geometry" />
        </mxCell>
        <mxCell id="oVyA_1ri0VorDqXgi2EA-36" value="&lt;font style=&quot;font-size: 14px;&quot;&gt;GET - getIngredientByCategory(EIngredientCategories)&lt;/font&gt;" style="text;html=1;align=center;verticalAlign=middle;resizable=0;points=[];autosize=1;strokeColor=none;fillColor=none;" vertex="1" parent="oVyA_1ri0VorDqXgi2EA-18">
          <mxGeometry y="105" width="370" height="30" as="geometry" />
        </mxCell>
        <mxCell id="oVyA_1ri0VorDqXgi2EA-19" value="&lt;font style=&quot;font-size: 14px;&quot;&gt;Ingredient Service&lt;/font&gt;" style="swimlane;whiteSpace=wrap;html=1;" vertex="1" parent="1">
          <mxGeometry x="80" y="640" width="430" height="250" as="geometry" />
        </mxCell>
        <mxCell id="oVyA_1ri0VorDqXgi2EA-27" value="&lt;font style=&quot;font-size: 14px;&quot;&gt;List&amp;lt;Ingredient&amp;gt; getAllIngredients()&lt;/font&gt;" style="text;html=1;align=center;verticalAlign=middle;resizable=0;points=[];autosize=1;strokeColor=none;fillColor=none;" vertex="1" parent="oVyA_1ri0VorDqXgi2EA-19">
          <mxGeometry y="28" width="240" height="30" as="geometry" />
        </mxCell>
        <mxCell id="oVyA_1ri0VorDqXgi2EA-28" value="&lt;font style=&quot;font-size: 14px;&quot;&gt;Ingredient getIngredientById(Long)&lt;/font&gt;" style="text;html=1;align=center;verticalAlign=middle;resizable=0;points=[];autosize=1;strokeColor=none;fillColor=none;" vertex="1" parent="oVyA_1ri0VorDqXgi2EA-19">
          <mxGeometry y="58" width="240" height="30" as="geometry" />
        </mxCell>
        <mxCell id="oVyA_1ri0VorDqXgi2EA-29" value="&lt;font style=&quot;font-size: 14px;&quot;&gt;Optional&amp;lt;Ingredient&amp;gt; getIngredientByName(String)&lt;/font&gt;" style="text;html=1;align=center;verticalAlign=middle;resizable=0;points=[];autosize=1;strokeColor=none;fillColor=none;" vertex="1" parent="oVyA_1ri0VorDqXgi2EA-19">
          <mxGeometry y="88" width="340" height="30" as="geometry" />
        </mxCell>
        <mxCell id="oVyA_1ri0VorDqXgi2EA-30" value="&lt;font style=&quot;font-size: 14px;&quot;&gt;List&amp;lt;Ingredient&amp;gt; getIngredientByCategory(EingredientCategories)&lt;/font&gt;" style="text;html=1;align=center;verticalAlign=middle;resizable=0;points=[];autosize=1;strokeColor=none;fillColor=none;" vertex="1" parent="oVyA_1ri0VorDqXgi2EA-19">
          <mxGeometry y="118" width="430" height="30" as="geometry" />
        </mxCell>
        <mxCell id="oVyA_1ri0VorDqXgi2EA-31" value="&lt;font style=&quot;font-size: 14px;&quot;&gt;Ingredient addIngredient(Ingredient)&lt;/font&gt;" style="text;html=1;align=center;verticalAlign=middle;resizable=0;points=[];autosize=1;strokeColor=none;fillColor=none;" vertex="1" parent="oVyA_1ri0VorDqXgi2EA-19">
          <mxGeometry y="148" width="250" height="30" as="geometry" />
        </mxCell>
        <mxCell id="oVyA_1ri0VorDqXgi2EA-32" value="&lt;font style=&quot;font-size: 14px;&quot;&gt;Ingredient updateIngredient(Long, Ingredient)&lt;/font&gt;" style="text;html=1;align=center;verticalAlign=middle;resizable=0;points=[];autosize=1;strokeColor=none;fillColor=none;" vertex="1" parent="oVyA_1ri0VorDqXgi2EA-19">
          <mxGeometry y="178" width="310" height="30" as="geometry" />
        </mxCell>
        <mxCell id="oVyA_1ri0VorDqXgi2EA-33" value="&lt;font style=&quot;font-size: 14px;&quot;&gt;void deleteIngredientById(Long)&lt;/font&gt;" style="text;html=1;align=center;verticalAlign=middle;resizable=0;points=[];autosize=1;strokeColor=none;fillColor=none;" vertex="1" parent="oVyA_1ri0VorDqXgi2EA-19">
          <mxGeometry y="208" width="220" height="30" as="geometry" />
        </mxCell>
        <mxCell id="oVyA_1ri0VorDqXgi2EA-20" value="&lt;font style=&quot;font-size: 14px;&quot;&gt;Ingredient Repository&lt;/font&gt;" style="swimlane;whiteSpace=wrap;html=1;" vertex="1" parent="1">
          <mxGeometry x="80" y="920" width="600" height="100" as="geometry" />
        </mxCell>
        <mxCell id="oVyA_1ri0VorDqXgi2EA-34" value="&lt;font style=&quot;font-size: 14px;&quot;&gt;Optional&amp;lt;Ingredient&amp;gt; findIngredientByNameIgnoreCase(String)&lt;/font&gt;" style="text;html=1;align=center;verticalAlign=middle;resizable=0;points=[];autosize=1;strokeColor=none;fillColor=none;" vertex="1" parent="oVyA_1ri0VorDqXgi2EA-20">
          <mxGeometry y="30" width="410" height="30" as="geometry" />
        </mxCell>
        <mxCell id="oVyA_1ri0VorDqXgi2EA-35" value="&lt;font style=&quot;font-size: 14px;&quot;&gt;List&amp;lt;Ingredient&amp;gt; findIngredientsByCategory(EIngredientCategories)&lt;/font&gt;" style="text;html=1;align=center;verticalAlign=middle;resizable=0;points=[];autosize=1;strokeColor=none;fillColor=none;" vertex="1" parent="oVyA_1ri0VorDqXgi2EA-20">
          <mxGeometry y="60" width="440" height="30" as="geometry" />
        </mxCell>
      </root>
    </mxGraphModel>
  </diagram>
</mxfile>
